Coordinates
version=1
nRows=9
nColumns=24
inDegrees=yes

Units are S.I. units (second, meters, Newtons, ...)
Angles are in degrees.

endheader
time	pelvis_tilt	pelvis_list	pelvis_rotation	pelvis_tx	pelvis_ty	pelvis_tz	hip_flexion_r	hip_adduction_r	hip_rotation_r	knee_angle_r	ankle_angle_r	subtalar_angle_r	mtp_angle_r	hip_flexion_l	hip_adduction_l	hip_rotation_l	knee_angle_l	ankle_angle_l	subtalar_angle_l	mtp_angle_l	lumbar_extension	lumbar_bending	lumbar_rotation
      0.75900000	     -1.31916318	      2.98417948	     10.32373245	      0.02899353	      0.98578685	      0.22632242	     31.70037443	     -7.05552798	     -7.37191991	     -3.38573529	      7.85256131	     -6.46051672	      3.40783651	    -17.00763086	      3.85469491	     14.50537152	    -12.56222934	     16.39375547	     -7.62905357	     -2.99912246	     -3.11488256	     -5.50167190	     -9.02072092
      0.76316667	     -1.30436761	      2.89699708	     10.54869459	      0.03536092	      0.98520137	      0.22670855	     31.68539139	     -7.03681002	     -7.38634148	     -4.08954708	      7.96239785	     -6.71361662	      3.41340881	    -17.19908576	      3.60620567	     14.51997874	    -12.88990003	     16.22308940	     -7.47453373	     -3.00319510	     -3.03358427	     -5.42711354	     -9.07937341
      0.76733333	     -1.30128608	      2.79996155	     10.76010091	      0.04180562	      0.98460098	      0.22716511	     31.63820366	     -6.98050669	     -7.25099846	     -4.69865569	      7.84837459	     -7.28330251	      3.43895186	    -17.35497698	      3.33885307	     14.40407398	    -13.25579436	     16.13102067	     -7.07385732	     -2.97624117	     -2.90804398	     -5.31107660	     -9.41843988
      0.77150000	     -1.27860298	      2.68734751	     10.97852444	      0.04829668	      0.98406776	      0.22763133	     31.55429453	     -6.90315229	     -7.17878686	     -5.27913397	      7.66445281	     -7.83315511	      3.48198181	    -17.52973850	      3.05190627	     14.35079977	    -13.61952068	     15.96001713	     -6.82107065	     -2.92031937	     -2.80994691	     -5.19723764	     -9.58523532
      0.77566667	     -1.26112557	      2.57580294	     11.19265559	      0.05482119	      0.98354385	      0.22813040	     31.46633856	     -6.81688591	     -7.10017665	     -5.83845653	      7.42317068	     -8.40939990	      3.55486661	    -17.68464397	      2.76605986	     14.27626687	    -14.00835910	     15.76523371	     -6.59437014	     -2.81973134	     -2.70985209	     -5.09151968	     -9.76919886
      0.77983333	     -1.25129112	      2.45047060	     11.40107996	      0.06141782	      0.98304259	      0.22866483	     31.37291583	     -6.70692891	     -7.03449764	     -6.36427955	      7.10290296	     -9.00385197	      3.66344033	    -17.82981371	      2.46500986	     14.20771818	    -14.39040888	     15.52881133	     -6.36523200	     -2.66739610	     -2.58024982	     -4.97612189	     -9.94536997
      0.78400000	     -1.23164705	      2.31099244	     11.60143729	      0.06806634	      0.98257349	      0.22922501	     31.26258431	     -6.57186366	     -6.99197719	     -6.86481628	      6.70728245	     -9.60109525	      3.80282382	    -17.97775746	      2.14619269	     14.12079791	    -14.77717208	     15.25444740	     -6.14154810	     -2.46871985	     -2.44905277	     -4.84018574	    -10.11245274
      0.78816667	     -1.22059644	      2.17366421	     11.78893645	      0.07476249	      0.98212129	      0.22984461	     31.15710144	     -6.42428103	     -6.93900827	     -7.34127061	      6.22407550	    -10.22807466	      4.05273401	    -18.11311772	      1.82933113	     14.02142919	    -15.16149955	     14.92480566	     -5.86984792	     -2.11300223	     -2.30221390	     -4.72847124	    -10.26298650
      0.79233333	     -1.20546977	      1.99412065	     11.97550395	      0.08150901	      0.98169177	      0.23044144	     31.04425712	     -6.23515542	     -6.94902647	     -7.79084962	      5.66110042	    -10.81679863	      4.23701767	    -18.22829300	      1.47292356	     13.90016737	    -15.58232360	     14.60547821	     -5.71759520	     -1.84044744	     -2.14415447	     -4.53772269	    -10.41212660
